<?xml version="1.0" encoding="UTF-8" standalone="no"?>
<svg
   width="31.955063"
   height="18.796873"
   viewBox="0 0 31.955063 18.796874"
   version="1.1"
   id="svg485"
   sodipodi:docname="gopher.svg"
   inkscape:version="1.2.2 (b0a84865, 2022-12-01)"
   xmlns:inkscape="http://www.inkscape.org/namespaces/inkscape"
   xmlns:sodipodi="http://sodipodi.sourceforge.net/DTD/sodipodi-0.dtd"
   xmlns="http://www.w3.org/2000/svg"
   xmlns:svg="http://www.w3.org/2000/svg">
  <defs
     id="defs489">
    <filter
       id="mask-powermask-path-effect815_inverse"
       inkscape:label="filtermask-powermask-path-effect815"
       style="color-interpolation-filters:sRGB"
       height="100"
       width="100"
       x="-50"
       y="-50">
      <feColorMatrix
         id="mask-powermask-path-effect815_primitive1"
         values="1"
         type="saturate"
         result="fbSourceGraphic" />
      <feColorMatrix
         id="mask-powermask-path-effect815_primitive2"
         values="-1 0 0 0 1 0 -1 0 0 1 0 0 -1 0 1 0 0 0 1 0 "
         in="fbSourceGraphic" />
    </filter>
    <filter
       id="mask-powermask-path-effect825_inverse"
       inkscape:label="filtermask-powermask-path-effect825"
       style="color-interpolation-filters:sRGB"
       height="100"
       width="100"
       x="-50"
       y="-50">
      <feColorMatrix
         id="mask-powermask-path-effect825_primitive1"
         values="1"
         type="saturate"
         result="fbSourceGraphic" />
      <feColorMatrix
         id="mask-powermask-path-effect825_primitive2"
         values="-1 0 0 0 1 0 -1 0 0 1 0 0 -1 0 1 0 0 0 1 0 "
         in="fbSourceGraphic" />
    </filter>
    <filter
       id="mask-powermask-path-effect839_inverse"
       inkscape:label="filtermask-powermask-path-effect839"
       style="color-interpolation-filters:sRGB"
       height="100"
       width="100"
       x="-50"
       y="-50">
      <feColorMatrix
         id="mask-powermask-path-effect839_primitive1"
         values="1"
         type="saturate"
         result="fbSourceGraphic" />
      <feColorMatrix
         id="mask-powermask-path-effect839_primitive2"
         values="-1 0 0 0 1 0 -1 0 0 1 0 0 -1 0 1 0 0 0 1 0 "
         in="fbSourceGraphic" />
    </filter>
    <filter
       id="mask-powermask-path-effect849_inverse"
       inkscape:label="filtermask-powermask-path-effect849"
       style="color-interpolation-filters:sRGB"
       height="100"
       width="100"
       x="-50"
       y="-50">
      <feColorMatrix
         id="mask-powermask-path-effect849_primitive1"
         values="1"
         type="saturate"
         result="fbSourceGraphic" />
      <feColorMatrix
         id="mask-powermask-path-effect849_primitive2"
         values="-1 0 0 0 1 0 -1 0 0 1 0 0 -1 0 1 0 0 0 1 0 "
         in="fbSourceGraphic" />
    </filter>
    <filter
       id="mask-powermask-path-effect885_inverse"
       inkscape:label="filtermask-powermask-path-effect885"
       style="color-interpolation-filters:sRGB"
       height="100"
       width="100"
       x="-50"
       y="-50">
      <feColorMatrix
         id="mask-powermask-path-effect885_primitive1"
         values="1"
         type="saturate"
         result="fbSourceGraphic" />
      <feColorMatrix
         id="mask-powermask-path-effect885_primitive2"
         values="-1 0 0 0 1 0 -1 0 0 1 0 0 -1 0 1 0 0 0 1 0 "
         in="fbSourceGraphic" />
    </filter>
  </defs>
  <sodipodi:namedview
     id="namedview487"
     pagecolor="#ffffff"
     bordercolor="#111111"
     borderopacity="1"
     inkscape:showpageshadow="0"
     inkscape:pageopacity="0"
     inkscape:pagecheckerboard="1"
     inkscape:deskcolor="#d1d1d1"
     showgrid="false"
     inkscape:zoom="7.375"
     inkscape:cx="17.694915"
     inkscape:cy="16.338983"
     inkscape:current-layer="svg485" />
  <ellipse
     cx="-17.953102"
     cy="-22.237581"
     fill="#384e54"
     color="#000000"
     overflow="visible"
     rx="3.5793996"
     ry="3.8207953"
     style="isolation:auto;mix-blend-mode:normal;solid-color:#000000;solid-opacity:1"
     transform="matrix(-0.49169424,-0.87076792,-0.87076792,0.49169424,0,0)"
     id="ellipse445" />
  <ellipse
     cx="-2.2411141"
     cy="5.5879378"
     fill="#384e54"
     color="#000000"
     overflow="visible"
     rx="3.5793996"
     ry="3.8207953"
     style="isolation:auto;mix-blend-mode:normal;solid-color:#000000;solid-opacity:1"
     transform="rotate(-60.548)"
     id="ellipse447" />
  <path
     id="path449"
     style="font-variation-settings:normal;opacity:1;isolation:auto;mix-blend-mode:normal;solid-color:#000000;solid-opacity:1;vector-effect:none;fill:#384e54;fill-opacity:1;stroke-width:1;stroke-linecap:butt;stroke-linejoin:miter;stroke-miterlimit:4;stroke-dasharray:none;stroke-dashoffset:0;stroke-opacity:1;-inkscape-stroke:none;stop-color:#000000;stop-opacity:1"
     d="m 16.022607,0.00195049 c -1.105748,0.01 -2.210658,0.048844 -3.316406,0.089844 C 6.7728594,0.31139409 1.93081,5.0320034 1.93081,10.999997 v 7.796875 h 28 v -7.796875 c 0,-5.9682936 -4.666965,-10.49140311 -10.589844,-10.90820271 -1.105749,-0.078 -2.212611,-0.0988438 -3.318359,-0.0898438 z" />
  <path
     fill="#76e1fe"
     d="m 4.5386967,3.6839974 c 0.459564,0.2595 1.818262,1.2013 1.980983,1.648 0.183401,0.5035 0.159385,1.0657 -0.114614,1.551 -0.346627,0.6138 -1.005341,0.9487 -1.696421,0.9365 -0.339886,-0.01 -1.720283,-0.6372 -2.042561,-0.8192 -0.97754,-0.5519 -1.350795,-1.7418 -0.833686,-2.6576 0.517109,-0.9158 1.728749,-1.2107 2.706299,-0.6587 z"
     color="#000000"
     overflow="visible"
     style="isolation:auto;mix-blend-mode:normal;solid-color:#000000;solid-opacity:1"
     id="path451" />
  <rect
     width="3.0866659"
     height="3.5313663"
     x="14.337023"
     y="14.322001"
     fill-opacity="0.328502"
     color="#000000"
     overflow="visible"
     ry="0.62426329"
     style="isolation:auto;mix-blend-mode:normal;solid-color:#000000;solid-opacity:1"
     id="rect453"
     rx="0.62426329" />
  <path
     id="path455"
     style="font-variation-settings:normal;opacity:1;isolation:auto;mix-blend-mode:normal;solid-color:#000000;solid-opacity:1;vector-effect:none;fill:#76e1fe;fill-opacity:1;stroke-width:1;stroke-linecap:butt;stroke-linejoin:miter;stroke-miterlimit:4;stroke-dasharray:none;stroke-dashoffset:0;stroke-opacity:1;-inkscape-stroke:none;stop-color:#000000;stop-opacity:1"
     d="m 15.93081,1.9999974 c -8.999991,0 -12,3.7153053 -12,8.9999996 v 7.796875 h 23.982422 c 0.0062,-3.70407 0.01758,-6.821314 0.01758,-7.796875 0,-5.2847943 -3.000009,-8.9999996 -12,-8.9999996 z" />
  <path
     fill="#76e1fe"
     d="m 27.004883,3.6839974 c -0.45957,0.2595 -1.818257,1.2013 -1.980979,1.648 -0.183401,0.5035 -0.159384,1.0657 0.114614,1.551 0.346627,0.6138 1.005335,0.9487 1.696415,0.9365 0.33988,-0.01 1.72029,-0.6372 2.04256,-0.8192 0.97754,-0.5519 1.35079,-1.7418 0.83369,-2.6576 -0.51711,-0.9158 -1.72876,-1.2107 -2.7063,-0.6587 z"
     color="#000000"
     overflow="visible"
     style="isolation:auto;mix-blend-mode:normal;solid-color:#000000;solid-opacity:1"
     id="path457" />
  <circle
     cx="21.106544"
     cy="8.9920454"
     r="4.6537542"
     fill="#ffffff"
     color="#000000"
     overflow="visible"
     style="isolation:auto;mix-blend-mode:normal;solid-color:#000000;solid-opacity:1"
     id="circle459" />
  <circle
     cx="10.270296"
     cy="8.9920454"
     r="4.8316345"
     fill="#ffffff"
     color="#000000"
     overflow="visible"
     style="isolation:auto;mix-blend-mode:normal;solid-color:#000000;solid-opacity:1"
     id="circle461" />
  <rect
     width="3.6673687"
     height="4.1063409"
     x="14.046673"
     y="14.555156"
     fill-opacity="0.329412"
     color="#000000"
     overflow="visible"
     ry="0.72590536"
     style="isolation:auto;mix-blend-mode:normal;solid-color:#000000;solid-opacity:1"
     id="rect463"
     rx="0.72590536" />
  <rect
     width="3.6673687"
     height="4.1063409"
     x="14.046673"
     y="13.863139"
     fill="#fffcfb"
     color="#000000"
     overflow="visible"
     ry="0.72590536"
     style="isolation:auto;mix-blend-mode:normal;solid-color:#000000;solid-opacity:1"
     id="rect465"
     rx="0.72590536" />
  <path
     fill-opacity="0.329412"
     d="m 19.930545,15.166697 c 0,0.838 -0.871228,1.2682 -2.144766,1.1659 -0.02366,0 -0.04795,-0.6004 -0.254147,-0.5832 -0.503669,0.042 -1.095902,-0.02 -1.685964,-0.02 -0.612939,0 -1.206342,0.1826 -1.68549,0.017 -0.110233,-0.038 -0.178298,0.5838 -0.261532,0.5816 -1.243685,-0.033 -2.078803,-0.3383 -2.078803,-1.1618 0,-1.2118 1.815635,-2.1941 4.055351,-2.1941 2.239704,0 4.055351,0.9823 4.055351,2.1941 z"
     color="#000000"
     overflow="visible"
     style="isolation:auto;mix-blend-mode:normal;solid-color:#000000;solid-opacity:1"
     id="path467" />
  <path
     fill="#c38c74"
     d="m 19.908224,14.338197 c 0,0.5685 -0.433659,0.8554 -1.138091,1.0001 -0.291933,0.06 -0.630371,0.096 -1.003719,0.1166 -0.56405,0.032 -1.207782,0.031 -1.89122,0.031 -0.672834,0 -1.307182,0 -1.864904,-0.029 -0.306268,-0.017 -0.589429,-0.043 -0.843164,-0.084 -0.813833,-0.1318 -1.324962,-0.417 -1.324962,-1.0344 0,-1.1601 1.805642,-2.1006 4.03303,-2.1006 2.227377,0 4.03303,0.9405 4.03303,2.1006 z"
     color="#000000"
     overflow="visible"
     style="isolation:auto;mix-blend-mode:normal;solid-color:#000000;solid-opacity:1"
     id="path469" />
  <ellipse
     cx="15.875192"
     cy="12.487895"
     fill="#23201f"
     color="#000000"
     overflow="visible"
     rx="2.0801733"
     ry="1.343747"
     style="isolation:auto;mix-blend-mode:normal;solid-color:#000000;solid-opacity:1"
     id="ellipse471" />
  <circle
     cx="12.345011"
     cy="8.9920454"
     r="1.9630634"
     fill="#171311"
     color="#000000"
     overflow="visible"
     style="isolation:auto;mix-blend-mode:normal;solid-color:#000000;solid-opacity:1"
     id="circle473" />
  <circle
     cx="23.040932"
     cy="8.9920454"
     r="1.9630634"
     fill="#171311"
     color="#000000"
     overflow="visible"
     style="isolation:auto;mix-blend-mode:normal;solid-color:#000000;solid-opacity:1"
     id="circle475" />
  <path
     fill="none"
     stroke="#384e54"
     stroke-linecap="round"
     stroke-width="0.397309"
     d="m 4.9363477,5.9104974 c -1.170435,-1.0835 -2.026973,-0.7721 -2.044172,-0.7463"
     id="path477" />
  <path
     fill="none"
     stroke="#384e54"
     stroke-linecap="round"
     stroke-width="0.397309"
     d="m 4.3160557,5.5529974 c -1.158557,0.036 -1.346704,0.6303 -1.33881,0.6523 m 23.5840973,-0.3951 c 1.17043,-1.0835 2.02697,-0.7721 2.04417,-0.7463"
     id="path479" />
  <path
     fill="none"
     stroke="#384e54"
     stroke-linecap="round"
     stroke-width="0.397309"
     d="m 27.252583,5.3107974 c 1.15856,0.036 1.3467,0.6302 1.3388,0.6522"
     id="path481" />
</svg>
