<?xml version="1.0" encoding="UTF-8" standalone="no"?>
<svg
   width="32"
   height="32"
   viewBox="0 0 32 32.000001"
   version="1.1"
   id="svg1417"
   sodipodi:docname="favicon.svg"
   inkscape:version="1.2.2 (b0a84865, 2022-12-01)"
   xml:space="preserve"
   xmlns:inkscape="http://www.inkscape.org/namespaces/inkscape"
   xmlns:sodipodi="http://sodipodi.sourceforge.net/DTD/sodipodi-0.dtd"
   xmlns="http://www.w3.org/2000/svg"
   xmlns:svg="http://www.w3.org/2000/svg"><defs
     id="defs1421" /><sodipodi:namedview
     id="namedview1419"
     pagecolor="#ffffff"
     bordercolor="#111111"
     borderopacity="1"
     inkscape:showpageshadow="0"
     inkscape:pageopacity="0"
     inkscape:pagecheckerboard="1"
     inkscape:deskcolor="#d1d1d1"
     showgrid="false"
     inkscape:zoom="9.4405321"
     inkscape:cx="10.433734"
     inkscape:cy="25.793038"
     inkscape:current-layer="svg1417" /><ellipse
     cx="-17.881088"
     cy="-22.177752"
     fill="#384e54"
     color="#000000"
     overflow="visible"
     rx="3.5541184"
     ry="3.7938089"
     style="isolation:auto;mix-blend-mode:normal;solid-color:#000000;solid-opacity:1;stroke-width:1.3269"
     transform="matrix(-0.49169424,-0.87076792,-0.87076792,0.49169424,0,0)"
     id="ellipse1377" /><ellipse
     cx="-2.1703322"
     cy="5.6456065"
     fill="#384e54"
     color="#000000"
     overflow="visible"
     rx="3.5541182"
     ry="3.7938089"
     style="isolation:auto;mix-blend-mode:normal;solid-color:#000000;solid-opacity:1;stroke-width:1.3269"
     transform="rotate(-60.548)"
     id="ellipse1379" /><path
     fill="#384e54"
     d="M 16.020939,0.00188484 C 14.923001,0.0118142 13.82621,0.05053875 12.728271,0.09124917 6.8368318,0.30929814 2.0287763,4.996358 2.0287763,10.922206 v 19.85874 H 29.831013 v -19.85874 c 0,-5.9261459 -4.63438,-10.41710068 -10.515432,-10.83095683 -1.097939,-0.07744909 -2.196702,-0.09830076 -3.294642,-0.08936433 z"
     color="#000000"
     overflow="visible"
     style="isolation:auto;mix-blend-mode:normal;solid-color:#000000;solid-opacity:1;stroke-width:1.3269"
     id="path1381" /><path
     fill="#76e1fe"
     d="M 4.6182438,3.657879 C 5.0745614,3.915546 6.4236632,4.8506941 6.5852347,5.2942391 6.7673399,5.7941829 6.7434939,6.3524121 6.4714264,6.8342844 6.1272477,7.4437491 5.4731858,7.7762838 4.7869866,7.7641699 4.4495062,7.7542406 3.0788589,7.1314705 2.7588568,6.950756 1.7882211,6.4027539 1.4176024,5.2212582 1.9310591,4.3119266 2.4445157,3.4025948 3.6475975,3.1097777 4.6182438,3.657879 Z"
     color="#000000"
     overflow="visible"
     style="isolation:auto;mix-blend-mode:normal;solid-color:#000000;solid-opacity:1;stroke-width:1.3269"
     id="path1383" /><rect
     width="3.0648646"
     height="3.5064242"
     x="14.347365"
     y="14.220747"
     fill-opacity="0.328502"
     color="#000000"
     overflow="visible"
     ry="0.62426335"
     style="isolation:auto;mix-blend-mode:normal;solid-color:#000000;solid-opacity:1;stroke-width:1.3269"
     id="rect1385"
     rx="0.62426335" /><path
     fill="#76e1fe"
     d="m 15.929894,1.985773 c -8.9364328,0 -11.9152442,3.6890588 -11.9152442,8.936433 v 19.85874 H 27.845139 c -0.04855,-7.304243 0,-17.872866 0,-19.85874 0,-5.2474735 -2.978811,-8.936433 -11.915245,-8.936433 z"
     color="#000000"
     overflow="visible"
     style="isolation:auto;mix-blend-mode:normal;solid-color:#000000;solid-opacity:1;stroke-width:1.3269"
     id="path1387" /><path
     fill="#76e1fe"
     d="m 26.925751,3.657879 c -0.456324,0.257667 -1.805414,1.1928151 -1.966986,1.6363601 -0.182107,0.4999438 -0.15826,1.058173 0.113808,1.5400453 0.344179,0.6094647 0.998234,0.9419994 1.684433,0.9298855 0.337479,-0.00993 1.70814,-0.6326994 2.028134,-0.8134139 0.970635,-0.5480021 1.341249,-1.7294978 0.8278,-2.6388294 C 29.099479,3.4025948 27.896387,3.1097777 26.925751,3.657879 Z"
     color="#000000"
     overflow="visible"
     style="isolation:auto;mix-blend-mode:normal;solid-color:#000000;solid-opacity:1;stroke-width:1.3269"
     id="path1389" /><circle
     cx="21.069071"
     cy="8.9284363"
     fill="#ffffff"
     color="#000000"
     overflow="visible"
     style="isolation:auto;mix-blend-mode:normal;solid-color:#000000;solid-opacity:1;stroke-width:1.3269"
     id="circle1391"
     r="4.6208849" /><circle
     cx="10.309361"
     cy="8.9284363"
     fill="#ffffff"
     color="#000000"
     overflow="visible"
     style="isolation:auto;mix-blend-mode:normal;solid-color:#000000;solid-opacity:1;stroke-width:1.3269"
     id="circle1393"
     r="4.7975087" /><rect
     width="3.6414661"
     height="4.0773377"
     x="14.059065"
     y="14.452254"
     fill-opacity="0.329412"
     color="#000000"
     overflow="visible"
     ry="0.72590536"
     style="isolation:auto;mix-blend-mode:normal;solid-color:#000000;solid-opacity:1;stroke-width:1.3269"
     id="rect1395"
     rx="0.72590536" /><rect
     width="3.6414661"
     height="4.0773377"
     x="14.059065"
     y="13.765125"
     fill="#fffcfb"
     color="#000000"
     overflow="visible"
     ry="0.72590536"
     style="isolation:auto;mix-blend-mode:normal;solid-color:#000000;solid-opacity:1;stroke-width:1.3269"
     id="rect1397"
     rx="0.72590536" /><path
     fill-opacity="0.329412"
     d="m 19.901379,15.059477 c 0,0.83208 -0.865074,1.259242 -2.129618,1.157665 -0.02349,0 -0.04762,-0.596159 -0.252352,-0.579081 -0.500111,0.0417 -1.08816,-0.01986 -1.674056,-0.01986 -0.60861,0 -1.197821,0.18131 -1.673585,0.01688 -0.109447,-0.03773 -0.177039,0.579675 -0.259685,0.577491 -1.234901,-0.03277 -2.064119,-0.33591 -2.064119,-1.153593 0,-1.203242 1.802811,-2.178604 4.026707,-2.178604 2.223886,0 4.026708,0.975362 4.026708,2.178604 z"
     color="#000000"
     overflow="visible"
     style="isolation:auto;mix-blend-mode:normal;solid-color:#000000;solid-opacity:1;stroke-width:1.3269"
     id="path1399" /><path
     fill="#c38c74"
     d="m 19.879216,14.236828 c 0,0.564486 -0.430596,0.849358 -1.130053,0.993036 -0.28987,0.05958 -0.625918,0.09532 -0.99663,0.115772 -0.560065,0.03178 -1.199251,0.03078 -1.877862,0.03078 -0.668082,0 -1.297949,0 -1.851732,-0.0288 -0.304105,-0.01688 -0.585266,-0.0427 -0.837208,-0.0834 -0.808085,-0.13087 -1.315605,-0.414055 -1.315605,-1.027094 0,-1.151906 1.79289,-2.085763 4.004545,-2.085763 2.211646,0 4.004545,0.933857 4.004545,2.085763 z"
     color="#000000"
     overflow="visible"
     style="isolation:auto;mix-blend-mode:normal;solid-color:#000000;solid-opacity:1;stroke-width:1.3269"
     id="path1401" /><ellipse
     cx="15.874668"
     cy="12.399594"
     fill="#23201f"
     color="#000000"
     overflow="visible"
     rx="2.0654809"
     ry="1.3342562"
     style="isolation:auto;mix-blend-mode:normal;solid-color:#000000;solid-opacity:1;stroke-width:1.3269"
     id="ellipse1403" /><circle
     cx="10.593407"
     cy="10.535308"
     fill="#171311"
     color="#000000"
     overflow="visible"
     style="isolation:auto;mix-blend-mode:normal;solid-color:#000000;solid-opacity:1;stroke-width:1.3269"
     id="circle1405"
     r="1.9491982" /><circle
     cx="21.213779"
     cy="10.535308"
     fill="#171311"
     color="#000000"
     overflow="visible"
     style="isolation:auto;mix-blend-mode:normal;solid-color:#000000;solid-opacity:1;stroke-width:1.3269"
     id="circle1407"
     r="1.9491982" /><path
     fill="none"
     stroke="#384e54"
     stroke-linecap="round"
     stroke-width="0.397309"
     d="M 5.0130854,5.8686532 C 3.8509176,4.7928059 3.0004294,5.1020065 2.9833518,5.1276243"
     id="path1409" /><path
     fill="none"
     stroke="#384e54"
     stroke-linecap="round"
     stroke-width="0.397309"
     d="M 4.3971752,5.5136782 C 3.2468006,5.549424 3.0599827,6.1395264 3.0678206,6.161371 M 26.485344,5.7690615 C 27.647507,4.6932144 28.497998,5.002415 28.515076,5.0280326"
     id="path1411" /><path
     fill="none"
     stroke="#384e54"
     stroke-linecap="round"
     stroke-width="0.397309"
     d="m 27.171702,5.2731888 c 1.150377,0.035746 1.337188,0.6257489 1.329344,0.6475936"
     id="path1413" /><path
     style="opacity:1;fill:none;stroke:#808080;stroke-width:0.300001;stroke-dasharray:none;paint-order:stroke fill markers;stop-color:#000000"
     d="m 15.881655,17.842463 -0.0088,-2.46605"
     id="path16126" /><path
     style="opacity:1;fill:#000000;stroke:#000000;stroke-width:0.2;-inkscape-stroke:none;paint-order:stroke fill markers;stop-color:#000000"
     d="m 15.879797,17.842463 -0.0051,-2.46605"
     id="path15761" /><path
     style="fill:#fffcf6;fill-opacity:1;fill-rule:evenodd;stroke:none;stroke-width:0.404689;stroke-linecap:square;stroke-linejoin:miter;stroke-miterlimit:4;stroke-dasharray:none;stroke-dashoffset:0;stroke-opacity:0.992157;paint-order:stroke fill markers"
     d="m 4.0494082,15.329561 -0.014348,0.177823 -0.00655,0.358814 c 0.118711,0.05379 0.2550024,0.06486 0.3805656,0.10071 1.3196095,0.31522 2.660856,0.506468 4.001909,0.680224 1.7558152,0.232703 3.5402992,0.427085 5.2116052,1.085969 0.355621,0.135706 0.988513,0.469168 1.331599,0.636889 0.05119,0.004 0.07505,-0.421167 -0.103281,-0.331479 -0.355139,-0.250358 -0.787859,-0.427652 -1.173074,-0.61874 C 12.336674,16.789177 10.820192,16.47681 9.3778544,16.243119 8.2842356,16.06584 7.106073,16.02984 6.0100302,15.874951 5.4090877,15.777434 4.8021798,15.660842 4.2352294,15.418221 4.1777242,15.394478 4.1105401,15.340461 4.0494466,15.329572 Z"
     id="path1045"
     inkscape:connector-curvature="0"
     sodipodi:nodetypes="cccccccccccccc"
     inkscape:export-xdpi="300"
     inkscape:export-ydpi="300" /><path
     style="fill:#f4f3ee;fill-opacity:1;fill-rule:evenodd;stroke:none;stroke-width:3.79842;stroke-linecap:square;stroke-linejoin:miter;stroke-miterlimit:4;stroke-dasharray:none;stroke-dashoffset:0;stroke-opacity:0.972549;paint-order:stroke fill markers"
     d="m 4.0289867,15.277583 -7.401e-4,0.01939 -0.00171,0.04033 -0.02044,0.513708 c -0.2684912,-0.064 -0.540748,-0.133295 -0.8173275,-0.209332 -0.4418029,0.196785 -0.9392447,0.523762 -2.19862367,0.538453 L 18.333895,21.477255 C 17.96895,20.903202 16.995318,19.582039 16.393607,18.968419 14.497779,16.751966 9.1977112,16.109627 6.7124207,15.882053 4.4916167,15.678698 4.4016411,15.310387 4.1024096,15.294205 c -0.026987,-0.0179 -0.048452,-0.01565 -0.073461,-0.01663 z m 0.069931,0.103756 c 0.2390419,0.133671 0.9155751,0.411224 2.6124963,0.589375 1.959674,0.205736 5.71817,0.490957 8.065255,2.183339 -3.106467,-1.684204 -6.3958081,-1.273975 -10.6973371,-2.28585 z"
     id="rect879-3"
     inkscape:connector-curvature="0"
     sodipodi:nodetypes="ccccccccscccsccc"
     inkscape:export-xdpi="300"
     inkscape:export-ydpi="300" /><path
     inkscape:connector-curvature="0"
     style="fill:#f4f3ee;fill-opacity:0.992157;fill-rule:evenodd;stroke:none;stroke-width:3.79842;stroke-linecap:square;stroke-linejoin:miter;stroke-miterlimit:4;stroke-dasharray:none;stroke-dashoffset:0;stroke-opacity:0.972549;paint-order:stroke fill markers"
     d="m 29.719957,15.851276 c -2.984684,0.948016 -11.822258,-0.228271 -14.601338,3.592418 l 2.939746,0.587856 c 4.60992,-0.674126 8.400982,-2.660867 13.193089,-3.83948 -0.653565,-0.132447 -0.705363,0.235867 -1.531497,-0.340794 z"
     id="rect879-8"
     sodipodi:nodetypes="ccccc"
     inkscape:export-xdpi="300"
     inkscape:export-ydpi="300" /><path
     style="fill:#c3c2bd;fill-opacity:0.992157;fill-rule:evenodd;stroke:none;stroke-width:3.44868;stroke-linecap:square;stroke-linejoin:miter;stroke-miterlimit:4;stroke-dasharray:none;stroke-dashoffset:0;stroke-opacity:0.972549;paint-order:stroke fill markers"
     d="m 13.749012,19.863767 c 0,0 1.382242,-0.602319 2.102522,-0.604938 0.738974,-0.0027 2.160126,0.604938 2.160126,0.604938 v 1.677106 h -4.262648 z"
     id="rect876"
     inkscape:connector-curvature="0"
     sodipodi:nodetypes="cacccc"
     inkscape:export-xdpi="300"
     inkscape:export-ydpi="300" /><path
     style="fill:#3465a4;fill-opacity:0.990521;fill-rule:evenodd;stroke:none;stroke-width:3.79842;stroke-linecap:square;stroke-linejoin:miter;stroke-miterlimit:4;stroke-dasharray:none;stroke-dashoffset:0;stroke-opacity:0.972549;paint-order:stroke fill markers"
     d="M 0.28245806,16.008995 13.722591,19.824415 V 39.095194 L 0.28245806,35.279777 Z"
     id="rect855"
     inkscape:connector-curvature="0"
     sodipodi:nodetypes="ccccc"
     inkscape:export-xdpi="300"
     inkscape:export-ydpi="300" /><path
     style="fill:#3465a4;fill-opacity:0.990521;fill-rule:evenodd;stroke:none;stroke-width:3.79842;stroke-linecap:square;stroke-linejoin:miter;stroke-miterlimit:4;stroke-dasharray:none;stroke-dashoffset:0;stroke-opacity:0.972549;paint-order:stroke fill markers"
     d="m 31.609828,16.008995 -13.440133,3.81542 v 19.270779 l 13.440133,-3.815417 z"
     id="rect855-9"
     inkscape:connector-curvature="0"
     sodipodi:nodetypes="ccccc"
     inkscape:export-xdpi="300"
     inkscape:export-ydpi="300" /><path
     style="fill:#204a87;fill-opacity:0.990521;fill-rule:evenodd;stroke:none;stroke-width:3.79842;stroke-linecap:square;stroke-linejoin:miter;stroke-miterlimit:4;stroke-dasharray:none;stroke-dashoffset:0;stroke-opacity:0.972549;paint-order:stroke fill markers"
     d="m 13.29835,19.687584 c 0,0 1.697574,0.489157 2.569435,0.489157 0.871863,1e-6 2.569437,-0.489157 2.569437,-0.489157 v 19.341484 c 0,0 -1.701248,0.437505 -2.569437,0.427391 -0.871801,-0.01016 -2.569435,-0.489157 -2.569435,-0.489157 z"
     id="rect873"
     inkscape:connector-curvature="0"
     sodipodi:nodetypes="caccacc"
     inkscape:export-xdpi="300"
     inkscape:export-ydpi="300" /><path
     style="fill:#1f4a87;fill-opacity:0.992157;fill-rule:evenodd;stroke:none;stroke-width:3.79842;stroke-linecap:square;stroke-linejoin:miter;stroke-miterlimit:4;stroke-dasharray:none;stroke-dashoffset:0;stroke-opacity:0.972549;paint-order:stroke fill markers"
     d="m 0.70246383,16.039042 14.67544117,4.150629 0.0494,0.123536 -15.13250265,-4.286515 c 0.13588284,-0.02516 0.27176881,-0.0282 0.40765219,0.01238 z"
     id="rect961"
     inkscape:connector-curvature="0"
     sodipodi:nodetypes="ccccc"
     inkscape:export-xdpi="300"
     inkscape:export-ydpi="300" /><path
     style="fill:#1f4a87;fill-opacity:0.992157;fill-rule:evenodd;stroke:none;stroke-width:3.79842;stroke-linecap:square;stroke-linejoin:miter;stroke-miterlimit:4;stroke-dasharray:none;stroke-dashoffset:0;stroke-opacity:0.972549;paint-order:stroke fill markers"
     d="m 31.208352,16.042163 -14.675441,4.150628 -0.0494,0.123536 15.1325,-4.286513 c -0.135876,-0.02516 -0.271768,-0.0282 -0.40765,0.01238 z"
     id="rect961-4"
     inkscape:connector-curvature="0"
     sodipodi:nodetypes="ccccc"
     inkscape:export-xdpi="300"
     inkscape:export-ydpi="300" /><path
     style="fill:#808080;fill-opacity:1;fill-rule:evenodd;stroke:none;stroke-width:1.51181;stroke-linecap:square;stroke-linejoin:miter;stroke-miterlimit:4;stroke-dasharray:none;stroke-dashoffset:0;stroke-opacity:0.992157;paint-order:stroke fill markers"
     d="m 13.352124,36.476742 c 0,0 1.67142,0.293494 2.515661,0.293494 0.844243,0 2.515663,-0.293494 2.515663,-0.293494 v 0.908435 c 0,0 -1.67142,0.293494 -2.515663,0.293494 -0.844241,0 -2.515661,-0.293494 -2.515661,-0.293494 z"
     id="rect1047"
     inkscape:connector-curvature="0"
     sodipodi:nodetypes="caccacc"
     inkscape:export-xdpi="300"
     inkscape:export-ydpi="300" /><path
     style="fill:#808080;fill-opacity:1;fill-rule:evenodd;stroke:none;stroke-width:1.51181;stroke-linecap:square;stroke-linejoin:miter;stroke-miterlimit:4;stroke-dasharray:none;stroke-dashoffset:0;stroke-opacity:0.992157;paint-order:stroke fill markers"
     d="m 13.352124,22.211527 c 0,0 1.67142,0.293494 2.515661,0.293494 0.844243,0 2.515663,-0.293494 2.515663,-0.293494 v 0.908435 c 0,0 -1.67142,0.293494 -2.515663,0.293494 -0.844241,0 -2.515661,-0.293494 -2.515661,-0.293494 z"
     id="rect1047-8"
     inkscape:connector-curvature="0"
     sodipodi:nodetypes="caccacc"
     inkscape:export-xdpi="300"
     inkscape:export-ydpi="300" /><path
     style="fill:#000000;fill-opacity:1;fill-rule:evenodd;stroke:none;stroke-width:1.51181;stroke-linecap:square;stroke-linejoin:miter;stroke-miterlimit:4;stroke-dasharray:none;stroke-dashoffset:0;stroke-opacity:0.992157;paint-order:stroke fill markers"
     d="m 13.35212,23.065626 v 0.07509 c 0,0 1.671376,0.293493 2.515617,0.293493 0.844245,0 2.515715,-0.293493 2.515715,-0.293493 v -0.07509 c 0,0 -1.67147,0.293493 -2.515715,0.293493 -0.844241,0 -2.515617,-0.293493 -2.515617,-0.293493 z"
     id="rect1047-8-2"
     inkscape:connector-curvature="0"
     sodipodi:nodetypes="ccsccsc"
     inkscape:export-xdpi="300"
     inkscape:export-ydpi="300" /><path
     style="fill:#000000;fill-opacity:1;fill-rule:evenodd;stroke:none;stroke-width:1.51181;stroke-linecap:square;stroke-linejoin:miter;stroke-miterlimit:4;stroke-dasharray:none;stroke-dashoffset:0;stroke-opacity:0.992157;paint-order:stroke fill markers"
     d="m 13.35212,22.19187 v 0.05039 c 0,0 1.671376,0.293494 2.515617,0.293494 0.844245,0 2.515715,-0.293494 2.515715,-0.293494 v -0.05039 c 0,0 -1.67147,0.293494 -2.515715,0.293494 -0.844241,0 -2.515617,-0.293494 -2.515617,-0.293494 z"
     id="rect1047-8-2-9"
     inkscape:connector-curvature="0"
     sodipodi:nodetypes="ccsccsc"
     inkscape:export-xdpi="300"
     inkscape:export-ydpi="300" /><path
     style="fill:#000000;fill-opacity:1;fill-rule:evenodd;stroke:none;stroke-width:1.51181;stroke-linecap:square;stroke-linejoin:miter;stroke-miterlimit:4;stroke-dasharray:none;stroke-dashoffset:0;stroke-opacity:0.992157;paint-order:stroke fill markers"
     d="m 13.35212,37.331869 v 0.0751 c 0,0 1.671376,0.293494 2.515617,0.293494 0.844245,0 2.515715,-0.293494 2.515715,-0.293494 v -0.0751 c 0,0 -1.67147,0.293494 -2.515715,0.293494 -0.844241,0 -2.515617,-0.293494 -2.515617,-0.293494 z"
     id="rect1047-8-2-97"
     inkscape:connector-curvature="0"
     sodipodi:nodetypes="ccsccsc"
     inkscape:export-xdpi="300"
     inkscape:export-ydpi="300" /><path
     style="fill:#000000;fill-opacity:1;fill-rule:evenodd;stroke:none;stroke-width:1.51181;stroke-linecap:square;stroke-linejoin:miter;stroke-miterlimit:4;stroke-dasharray:none;stroke-dashoffset:0;stroke-opacity:0.992157;paint-order:stroke fill markers"
     d="m 13.35212,36.458113 v 0.05039 c 0,0 1.671376,0.293494 2.515617,0.293494 0.844245,0 2.515715,-0.293494 2.515715,-0.293494 v -0.05039 c 0,0 -1.67147,0.293494 -2.515715,0.293494 -0.844241,0 -2.515617,-0.293494 -2.515617,-0.293494 z"
     id="rect1047-8-2-9-0"
     inkscape:connector-curvature="0"
     sodipodi:nodetypes="ccsccsc"
     inkscape:export-xdpi="300"
     inkscape:export-ydpi="300" /><text
     xml:space="preserve"
     style="font-size:10.8035px;line-height:1.58705px;font-family:Go;-inkscape-font-specification:Go;text-decoration:none;text-decoration-line:none;text-decoration-color:#000000;fill:#000000;stroke-width:10.857;stroke-miterlimit:10;-inkscape-stroke:none;paint-order:fill markers stroke;stop-color:#000000"
     x="3.067112"
     y="26.22736"
     id="text17664"
     transform="skewY(15)"><tspan
       sodipodi:role="line"
       id="tspan17662"
       x="3.067112"
       y="26.22736"
       style="font-weight:bold;font-size:10.8035px;fill:#ffffff;stroke-width:10.857">G</tspan></text><text
     xml:space="preserve"
     style="font-size:10.8035px;line-height:1.58705px;font-family:Go;-inkscape-font-specification:Go;text-decoration:none;text-decoration-line:none;text-decoration-color:#000000;fill:#000000;stroke-width:10.857;stroke-miterlimit:10;-inkscape-stroke:none;paint-order:fill markers stroke;stop-color:#000000"
     x="21.033766"
     y="34.807495"
     id="text17668"
     transform="skewY(-15)"><tspan
       sodipodi:role="line"
       id="tspan17666"
       x="21.033766"
       y="34.807495"
       style="font-weight:bold;font-size:10.8035px;fill:#ffffff;stroke-width:10.857">A</tspan></text></svg>
